<?xml version="1.0" encoding="UTF-8"?>
<svg fill="none" height="37" viewBox="0 0 172 37" width="172" xmlns="http://www.w3.org/2000/svg">
  <path d="M106.792 9.09836H100.726V37H106.792V25.4754C108.157 27.1055 110.09 27.9016 112.213 27.9016C117.407 27.9016 121.349 23.5799 121.349 18.1967C121.349 12.8135 117.407 8.4918 112.213 8.4918C110.09 8.4918 108.157 9.28791 106.792 10.918V9.09836ZM111.038 22.4426C108.725 22.4426 106.792 20.5092 106.792 18.1967C106.792 15.8842 108.725 13.9508 111.038 13.9508C113.35 13.9508 115.284 15.8842 115.284 18.1967C115.284 20.5092 113.35 22.4426 111.038 22.4426Z" fill="#011E53"/>
  <path d="M131.351 27.9016C133.588 27.9016 135.294 26.8781 136.204 25.4754V27.2951H142.269V9.09836H136.204V18.1967C136.204 21.3053 134.384 22.4426 133.171 22.4426C131.844 22.4426 130.138 21.874 130.138 18.8033V9.09836H124.073V19.4098C124.073 25.0584 127.56 27.9016 131.351 27.9016Z" fill="#011E53"/>
  <path d="M14.6332 22.4426C9.93238 22.4426 6.06557 18.6895 6.06557 13.9508C6.06557 9.21209 9.93238 5.45902 14.6332 5.45902C16.7561 5.45902 18.6137 6.25512 20.0164 7.43033L23.0492 2.80533C20.7367 0.985657 17.4006 0 14.5953 0C6.5584 0 0 6.25512 0 13.9508C0 21.6465 6.5584 27.9016 14.5953 27.9016C17.4006 27.9016 20.7367 26.916 23.0492 25.0963L20.0164 20.4713C18.6137 21.6465 16.7561 22.4426 14.6332 22.4426Z" fill="#011E53"/>
  <path d="M154.476 15.2777C152.959 15.0123 152.58 14.8227 152.58 14.2162C152.58 13.7234 153.301 13.4201 154.627 13.5338C156.144 13.6475 157.319 14.2541 158.191 14.8986L160.503 10.3873C159.025 9.43955 157.509 8.98463 156.295 8.71926C155.575 8.60553 154.893 8.52971 154.21 8.4918C149.168 8.4918 146.515 11.335 146.515 14.4057C146.515 16.5287 147.121 19.2582 153.149 20.4713C154.931 20.8125 155.916 20.9262 155.916 21.7982C155.916 22.5184 154.855 22.9355 152.694 22.6701C151.519 22.5564 149.851 22.0256 148.031 20.5471L145.605 25.0963C146.515 26.0061 149.434 27.9016 153.566 27.9016C159.214 27.9016 161.982 25.0584 161.982 21.5328C161.982 17.8176 158.76 15.998 154.476 15.2777Z" fill="#011E53"/>
  <path d="M168.354 27.9016C170.212 27.9016 171.69 26.4232 171.69 24.5656C171.69 22.708 170.212 21.2295 168.354 21.2295C166.497 21.2295 165.018 22.708 165.018 24.5656C165.018 26.4232 166.497 27.9016 168.354 27.9016Z" fill="#FF6E30"/>
  <path d="M34.5145 22.5943C33.7942 22.5943 33.074 22.4805 32.619 22.2152L43.3854 15.7705C41.9828 9.70492 37.3578 8.4918 34.742 8.4918C28.4111 8.4918 24.5822 12.8135 24.5822 18.1967C24.5822 23.5799 28.4111 27.9016 34.742 27.9016C37.6611 27.9016 40.1631 26.8402 42.1723 24.9068L39.0637 20.8504C37.9643 21.874 36.3342 22.5943 34.5145 22.5943ZM34.742 13.7992C35.7656 13.7992 36.41 14.292 36.7133 14.7848L30.4203 18.5379C30.0033 15.6947 32.202 13.7992 34.742 13.7992Z" fill="#011E53"/>
  <path d="M51.8894 9.09836H45.8238V27.2951H51.8894V20.585C51.8894 17.5902 53.4437 15.6568 55.2255 15.1639C56.3248 14.8607 57.3863 14.8227 58.5615 15.1639V8.4918C55.1117 8.75717 53.1404 9.85656 51.8894 12.4723V9.09836Z" fill="#011E53"/>
  <path d="M64.3031 27.2951H70.3687V14.5574H75.2211V9.09836H70.3687V1.81967L64.3031 3.63934V9.09836H61.2703V14.5574H64.3031V27.2951Z" fill="#011E53"/>
  <path d="M87.3528 8.4918C81.1735 8.4918 77.0414 12.8135 77.0414 18.1967C77.0414 23.5799 81.2873 27.9016 87.3528 27.9016C93.191 27.9016 97.6643 23.5799 97.6643 18.1967C97.6643 12.8135 93.1151 8.4918 87.3528 8.4918ZM87.3528 22.4426C85.0403 22.4426 83.107 20.5092 83.107 18.1967C83.107 15.8842 85.0403 13.9508 87.3528 13.9508C89.6653 13.9508 91.5987 15.8842 91.5987 18.1967C91.5987 20.5092 89.6653 22.4426 87.3528 22.4426Z" fill="#011E53"/>
</svg>